<?xml version="1.0" encoding="utf-8"?>
<svg viewBox="9.029 161.963 102 102" width="30px" height="30px" xmlns="http://www.w3.org/2000/svg">
  <defs>
    <linearGradient gradientUnits="userSpaceOnUse" x1="201.256" y1="39.954" x2="201.256" y2="163.376" id="gradient-0" gradientTransform="matrix(1, 0, 0, 1, -47.215624, 91.167532)">
      <stop offset="0" style="stop-color: rgb(3, 3, 31);"/>
      <stop offset="1" style="stop-color: rgb(11, 7, 37);"/>
    </linearGradient>
    <linearGradient gradientUnits="userSpaceOnUse" x1="159.563" y1="133.941" x2="159.563" y2="186.536" id="gradient-1" spreadMethod="pad" gradientTransform="matrix(1, 0, 0, 1, -107.378726, 81.845181)">
      <stop offset="0" style="stop-color: rgb(169, 161, 70);"/>
      <stop offset="1" style="stop-color: rgb(89, 73, 27);"/>
    </linearGradient>
  </defs>
  <path d="M 16.4 184.525 Q 16.4 177.045 22.393 172.498 Q 28.385 167.95 36.885 167.95 Q 46.065 167.95 52.61 172.115 L 49.125 178.49 Q 42.665 175.26 36.715 175.26 Q 31.785 175.26 28.13 177.555 Q 24.475 179.85 24.475 183.845 Q 24.475 190.9 36.715 194.81 Q 45.555 197.615 50.23 201.738 Q 54.905 205.86 54.905 213.34 Q 54.905 221.415 48.403 226.303 Q 41.9 231.19 32.805 231.19 Q 22.775 231.19 14.02 225.665 L 17.42 218.355 Q 24.73 223.88 33.315 223.88 Q 39.18 223.88 42.963 221.288 Q 46.745 218.695 46.745 213.765 Q 46.745 206.03 34.42 202.12 Q 16.4 196.34 16.4 184.525 Z M 108.411 230 L 70.586 230 L 70.586 169.14 L 78.661 169.14 L 78.661 223.115 L 108.411 223.115 Z" style="fill: url(#gradient-0); stroke: rgb(8, 2, 31); text-transform: capitalize; white-space: pre;"/>
  <path d="M 33.398 246.41 Q 33.398 249.066 32.788 251.105 Q 32.179 253.144 31.187 254.402 Q 30.194 255.66 28.773 256.457 Q 27.351 257.254 25.89 257.558 Q 24.429 257.863 22.726 257.863 L 14.46 257.863 L 14.46 235.207 L 22.351 235.207 Q 24.21 235.207 25.741 235.511 Q 27.273 235.816 28.405 236.355 Q 29.538 236.894 30.405 237.691 Q 31.273 238.488 31.835 239.426 Q 32.398 240.363 32.749 241.519 Q 33.101 242.676 33.249 243.855 Q 33.398 245.035 33.398 246.41 Z M 22.382 254.426 Q 25.788 254.426 27.718 252.246 Q 29.648 250.066 29.648 246.363 Q 29.648 242.66 27.733 240.652 Q 25.819 238.644 22.304 238.644 L 18.21 238.644 L 18.21 254.426 Z M 48.007 247.66 L 53.194 247.66 L 50.601 241.144 Z M 52.194 235.207 L 61.241 257.863 L 57.272 257.863 L 54.569 251.097 L 46.632 251.097 L 43.929 257.863 L 39.96 257.863 L 49.007 235.207 Z M 71.851 257.863 L 71.851 238.644 L 64.663 238.644 L 64.663 235.207 L 82.819 235.207 L 82.819 238.644 L 75.601 238.644 L 75.601 257.863 Z M 94.147 247.66 L 99.335 247.66 L 96.741 241.144 Z M 98.335 235.207 L 107.382 257.863 L 103.413 257.863 L 100.71 251.097 L 92.772 251.097 L 90.069 257.863 L 86.101 257.863 L 95.147 235.207 Z" style="fill: url(#gradient-1); paint-order: fill; stroke: rgb(65, 63, 26); white-space: pre;"/>
</svg>