<?xml version="1.0" encoding="utf-8"?>
<svg width="1600px" viewBox="9.029 161.963 185.102 96.502" xmlns="http://www.w3.org/2000/svg">
  <defs>
    <linearGradient gradientUnits="userSpaceOnUse" x1="201.256" y1="39.954" x2="201.256" y2="163.376" id="gradient-0" gradientTransform="matrix(1, 0, 0, 1, -40.610067, 102.491345)">
      <stop offset="0" style="stop-color: rgb(3, 3, 31);"/>
      <stop offset="1" style="stop-color: rgb(11, 7, 37);"/>
    </linearGradient>
    <linearGradient gradientUnits="userSpaceOnUse" x1="159.563" y1="133.941" x2="159.563" y2="186.536" id="gradient-1" spreadMethod="pad" gradientTransform="matrix(1, 0, 0, 1, -57.1293, 74.531879)">
      <stop offset="0" style="stop-color: rgb(169, 161, 70);"/>
      <stop offset="1" style="stop-color: rgb(89, 73, 27);"/>
    </linearGradient>
    <linearGradient x1="-0.186" x2="-0.186" y1="0.028" y2="1.028" id="gradient-4" gradientTransform="matrix(0.998247, 0.06147, -0.057587, 1.008972, 0, 0)">
      <stop offset="0" style="stop-color: rgb(169, 161, 70);"/>
      <stop offset="1" style="stop-color: rgb(159, 132, 51);"/>
    </linearGradient>
    <linearGradient gradientUnits="userSpaceOnUse" x1="-2.103" y1="146.523" x2="-2.103" y2="389.16" id="gradient-2" gradientTransform="matrix(0.259843, 0, 0, 0.206326, 37.549387, 135.120427)">
      <stop offset="0" style="stop-color: rgb(141, 133, 40);"/>
      <stop offset="0.961" style="stop-color: rgb(45, 42, 11);"/>
      <stop offset="1" style="stop-color: rgba(36, 34, 10, 1)"/>
    </linearGradient>
  </defs>
  <path d="M 23.005 195.849 Q 23.005 188.369 28.997 183.822 Q 34.99 179.274 43.49 179.274 Q 52.67 179.274 59.215 183.439 L 55.73 189.814 Q 49.27 186.584 43.32 186.584 Q 38.39 186.584 34.735 188.879 Q 31.08 191.174 31.08 195.169 Q 31.08 202.224 43.32 206.134 Q 52.16 208.939 56.835 213.062 Q 61.51 217.184 61.51 224.664 Q 61.51 232.739 55.007 237.627 Q 48.505 242.514 39.41 242.514 Q 29.38 242.514 20.625 236.989 L 24.025 229.679 Q 31.335 235.204 39.92 235.204 Q 45.785 235.204 49.567 232.612 Q 53.35 230.019 53.35 225.089 Q 53.35 217.354 41.025 213.444 Q 23.005 207.664 23.005 195.849 Z" style="fill: url(#gradient-0); stroke: rgb(8, 2, 31); text-transform: capitalize; white-space: pre;"/>
  <path style="fill: url(#gradient-0); stroke: rgb(8, 2, 31); text-transform: lowercase; white-space: pre;"/>
  <path d="M 184.647 241.324 L 146.822 241.324 L 146.822 180.464 L 154.897 180.464 L 154.897 234.439 L 184.647 234.439 Z" style="fill: url(#gradient-0); stroke: rgb(8, 2, 31); text-transform: capitalize; white-space: pre;"/>
  <path d="M 78.93 241.602 Q 78.93 243.677 78.454 245.27 Q 77.978 246.863 77.202 247.846 Q 76.427 248.829 75.316 249.451 Q 74.206 250.074 73.064 250.312 Q 71.923 250.55 70.592 250.55 L 64.135 250.55 L 64.135 232.85 L 70.299 232.85 Q 71.752 232.85 72.948 233.088 Q 74.145 233.326 75.03 233.747 Q 75.915 234.168 76.592 234.791 Q 77.27 235.413 77.709 236.146 Q 78.148 236.878 78.423 237.781 Q 78.698 238.685 78.814 239.606 Q 78.93 240.528 78.93 241.602 Z M 70.324 247.864 Q 72.985 247.864 74.492 246.162 Q 76 244.459 76 241.566 Q 76 238.673 74.505 237.104 Q 73.009 235.535 70.263 235.535 L 67.064 235.535 L 67.064 247.864 Z M 91.415 242.579 L 95.468 242.579 L 93.441 237.488 Z M 94.687 232.85 L 101.754 250.55 L 98.654 250.55 L 96.542 245.264 L 90.341 245.264 L 88.229 250.55 L 85.128 250.55 L 92.196 232.85 Z M 111.131 250.55 L 111.131 235.535 L 105.516 235.535 L 105.516 232.85 L 119.7 232.85 L 119.7 235.535 L 114.061 235.535 L 114.061 250.55 Z M 129.636 242.579 L 133.688 242.579 L 131.662 237.488 Z M 132.907 232.85 L 139.975 250.55 L 136.874 250.55 L 134.763 245.264 L 128.561 245.264 L 126.45 250.55 L 123.349 250.55 L 130.417 232.85 Z" style="fill: url(#gradient-1); paint-order: fill; stroke: rgb(65, 63, 26); white-space: pre;"/>
  <g transform="matrix(0.534462, 0, 0, 0.523607, 4.486101, 4.900553)" style="">
    <path style="fill: url(#gradient-4); stroke: rgb(65, 63, 26); paint-order: fill;" d="M 120.482 414.082 C 118.897 416.526 132.833 382.204 123.901 369.903 C 125.11 363.286 130.978 368.964 135.523 375.286 C 140.968 376.293 138.162 335.279 144.751 336.2 C 149.048 336.57 156.067 344.767 154.324 357.724 C 156.013 359.558 166.852 337.108 165.261 333.084 C 163.983 327.006 174.221 313.378 176.541 313.827 C 176.943 310.226 187.903 308.025 188.161 311.279 C 197.419 311.2 177.311 335.036 186.456 331.949 C 201.976 316.116 250.508 313.794 248.323 320.058 C 237.283 320.57 220.211 327.19 201.491 338.317 C 173.205 355.127 141.158 382.223 120.482 414.082 Z"/>
  </g>
  <path style="stroke: rgb(65, 63, 26); paint-order: fill; fill: url(#gradient-2);" d="M 69.073 222.884 C 78.332 202.093 104.184 181.36 121.066 176.13 C 125.462 174.769 137.235 171.394 138.498 172.97 C 136.741 174.858 139.657 177.467 129.387 179.397 C 126.715 179.899 121.467 182.271 117.682 183.353 C 107.001 186.406 109.922 191.125 118.819 190.306 C 125.541 189.687 133.333 194.029 128.841 197.03 C 118.857 203.699 93.431 196.228 99.348 200.405 C 104.945 204.356 116.238 215.675 96.588 209.584 C 85.53 203.433 69.161 223.118 69.073 222.884 Z"/>
</svg>
